<?xml version="1.0" standalone="no"?>
<!DOCTYPE svg PUBLIC "-//W3C//DTD SVG 20010904//EN"
 "http://www.w3.org/TR/2001/REC-SVG-20010904/DTD/svg10.dtd">
<svg version="1.0" xmlns="http://www.w3.org/2000/svg"
 width="800.000000pt" height="600.000000pt" viewBox="0 0 800.000000 600.000000"
 preserveAspectRatio="xMidYMid meet">
<metadata>
Created by potrace 1.16, written by Peter Selinger 2001-2019
</metadata>
<g transform="translate(0.000000,600.000000) scale(0.100000,-0.100000)"
fill="#000000" stroke="none">
<path d="M2821 5158 c-7 -40 -18 -102 -26 -138 -8 -36 -15 -77 -15 -92 0 -24
-4 -28 -30 -28 l-29 0 -3 -82 c-3 -71 -5 -83 -19 -80 -22 3 -24 -21 -46 -530
l-17 -398 -162 0 -163 0 -10 -52 c-6 -29 -22 -114 -36 -188 -14 -74 -28 -145
-30 -157 -5 -22 -9 -23 -130 -23 l-125 0 0 -83 0 -83 -114 -28 -113 -27 -12
-55 c-7 -31 -11 -57 -9 -59 2 -2 46 18 98 44 255 131 526 197 850 208 253 8
480 -18 741 -87 177 -46 169 -45 129 -19 -19 12 -71 41 -116 65 l-81 42 86 7
c296 22 513 27 1354 32 517 3 935 8 930 12 -4 4 -44 15 -88 25 -44 10 -97 26
-118 37 -26 13 -59 19 -106 19 l-69 0 -32 168 c-17 92 -34 175 -36 185 -5 15
-22 17 -169 17 l-163 0 -6 78 c-3 42 -13 237 -21 432 -20 454 -16 415 -40 415
-18 0 -20 8 -23 77 -3 75 -3 77 -30 80 -25 3 -27 7 -33 58 -9 84 -23 110 -59
110 -19 0 -30 -5 -30 -14 0 -7 -7 -19 -15 -26 -8 -7 -15 -34 -17 -68 -3 -54
-5 -57 -30 -60 -28 -3 -28 -4 -28 -79 0 -65 -2 -76 -19 -80 -16 -4 -20 -17
-25 -76 -6 -70 -26 -525 -26 -580 l0 -27 -110 0 -110 0 0 109 0 109 30 5 c43
9 112 77 143 141 36 72 34 80 -9 51 -74 -50 -128 -53 -251 -13 -63 20 -63 20
-63 58 0 33 4 39 29 48 48 17 121 135 137 223 l7 34 -39 -36 c-49 -46 -74 -59
-116 -59 -37 0 -131 56 -135 80 -1 8 -5 59 -8 112 -7 93 -8 97 -28 94 -12 -3
-28 -5 -34 -5 -9 -1 -13 -18 -13 -51 l0 -50 -74 0 -74 0 -8 47 c-6 33 -15 49
-27 51 -13 3 -17 -3 -17 -25 0 -70 -5 -74 -89 -71 l-76 3 -3 48 c-3 46 -4 47
-38 47 l-34 0 0 -109 0 -110 -54 -30 c-81 -47 -112 -43 -206 28 l-32 24 7 -34
c19 -92 103 -219 144 -219 18 0 21 -6 21 -38 l0 -38 -72 -24 c-107 -35 -172
-33 -237 8 -50 30 -52 31 -46 10 26 -86 99 -171 166 -193 l34 -12 3 -106 3
-107 -109 0 -110 0 -6 93 c-3 50 -11 200 -16 332 -6 132 -13 246 -15 252 -2 7
-11 10 -20 7 -12 -5 -15 4 -15 57 0 88 -7 109 -36 109 -20 0 -24 6 -30 48 -3
26 -10 52 -14 57 -4 6 -16 58 -25 118 -10 59 -21 107 -26 107 -4 0 -12 -33
-18 -72z m1035 -1262 l34 -34 0 -126 0 -126 -101 0 -101 0 4 129 c3 112 6 132
23 151 45 50 95 52 141 6z"/>
<path d="M2449 1577 c-88 -33 -139 -102 -139 -190 0 -114 52 -163 220 -206
121 -31 163 -65 144 -118 -25 -73 -173 -61 -297 24 -20 14 -38 24 -40 22 -1
-2 -17 -26 -36 -52 -32 -47 -33 -49 -15 -69 26 -28 118 -73 182 -88 76 -18
196 -9 250 19 82 42 129 145 102 226 -26 79 -73 113 -229 164 -51 16 -102 38
-112 47 -25 22 -24 66 1 89 38 34 166 9 270 -52 3 -2 18 22 34 53 l30 56 -25
19 c-71 55 -260 86 -340 56z"/>
<path d="M4716 1574 c-96 -30 -169 -93 -214 -184 -24 -49 -27 -66 -27 -155 0
-89 3 -106 28 -157 35 -72 110 -140 185 -168 114 -44 260 -23 360 51 l42 31
-40 48 -41 49 -51 -32 c-93 -58 -218 -48 -285 25 -74 79 -69 243 8 318 71 68
165 77 263 26 l65 -34 36 43 c19 24 35 48 35 53 0 17 -91 71 -144 87 -62 19
-156 18 -220 -1z"/>
<path d="M1390 1240 l0 -340 70 0 70 0 0 135 0 135 165 0 165 0 0 -135 0 -135
70 0 70 0 0 340 0 340 -70 0 -69 0 -3 -142 -3 -143 -160 0 -160 0 -3 143 -3
142 -69 0 -70 0 0 -340z"/>
<path d="M3110 1240 l0 -340 70 0 70 0 0 340 0 340 -70 0 -70 0 0 -340z"/>
<path d="M3577 1573 c-4 -3 -7 -156 -7 -340 l0 -333 70 0 70 0 0 216 c0 136 4
214 10 212 9 -3 167 -203 285 -360 l50 -67 68 -1 67 0 0 340 0 340 -70 0 -70
0 -2 -219 -3 -219 -173 219 -174 219 -57 0 c-32 0 -61 -3 -64 -7z"/>
<path d="M5350 1240 l0 -340 70 0 70 0 0 135 0 135 170 0 170 0 0 -135 0 -135
70 0 70 0 0 340 0 340 -70 0 -70 0 0 -140 0 -140 -170 0 -170 0 0 140 0 140
-70 0 -70 0 0 -340z"/>
<path d="M6272 1348 c5 -266 16 -313 85 -380 49 -47 87 -65 159 -77 110 -17
217 13 280 81 70 74 84 141 84 410 l0 199 -72 -3 -73 -3 -5 -230 c-6 -259 -11
-279 -76 -310 -57 -27 -145 -17 -184 20 -17 16 -35 45 -40 64 -5 20 -10 132
-10 249 l0 212 -76 0 -76 0 4 -232z"/>
</g>
</svg>
